<?xml version="1.0" encoding="UTF-8" standalone="no"?>
<!-- Created with Inkscape (http://www.inkscape.org/) -->

<svg
   xmlns:dc="http://purl.org/dc/elements/1.1/"
   xmlns:cc="http://creativecommons.org/ns#"
   xmlns:rdf="http://www.w3.org/1999/02/22-rdf-syntax-ns#"
   xmlns:svg="http://www.w3.org/2000/svg"
   xmlns="http://www.w3.org/2000/svg"
   xmlns:sodipodi="http://sodipodi.sourceforge.net/DTD/sodipodi-0.dtd"
   xmlns:inkscape="http://www.inkscape.org/namespaces/inkscape"
   width="7.7200613mm"
   height="6.9423819mm"
   viewBox="0 0 7.7200613 6.9423819"
   version="1.1"
   id="svg1840"
   inkscape:version="0.92.1 r15371"
   sodipodi:docname="beam-database-connector.svg">
  <defs
     id="defs1834">
    <mask
       id="mask-22"
       fill="white">
      <path
         inkscape:connector-curvature="0"
         id="use213"
         d="m 0.00366631,3.5536222 c 0.00990938,0.097059 0.04007501,0.1925105 0.09049687,0.2798086 L 1.6981757,6.6111392 C 1.8157624,6.8147234 2.0267789,6.9451141 2.2594211,6.9607659 H 5.5620497 C 5.7946919,6.9451141 6.0057083,6.8147234 6.1232951,6.6111392 L 7.7273076,3.8334308 c 0.1255713,-0.2173025 0.1255713,-0.4851277 0,-0.7024913 L 6.1232951,0.35329216 C 5.9977849,0.1359286 5.7658294,0.00201602 5.514748,0.00201602 H 2.3067228 c -0.2510814,0 -0.4830369,0.13391258 -0.6085471,0.35127614 L 0.09416318,3.1309395 C 0.04374132,3.2182622 0.01357569,3.3137288 0.00366631,3.4107921 v 0.1428302"
         style="stroke-width:0.26458332" />
    </mask>
    <mask
       id="mask-22-3"
       fill="white">
      <path
         inkscape:connector-curvature="0"
         id="use213-6"
         d="m 0.00366631,3.5536222 c 0.00990938,0.097059 0.04007501,0.1925105 0.09049687,0.2798086 L 1.6981757,6.6111392 C 1.8157624,6.8147234 2.0267789,6.9451141 2.2594211,6.9607659 H 5.5620497 C 5.7946919,6.9451141 6.0057083,6.8147234 6.1232951,6.6111392 L 7.7273076,3.8334308 c 0.1255713,-0.2173025 0.1255713,-0.4851277 0,-0.7024913 L 6.1232951,0.35329216 C 5.9977849,0.1359286 5.7658294,0.00201602 5.514748,0.00201602 H 2.3067228 c -0.2510814,0 -0.4830369,0.13391258 -0.6085471,0.35127614 L 0.09416318,3.1309395 C 0.04374132,3.2182622 0.01357569,3.3137288 0.00366631,3.4107921 v 0.1428302"
         style="stroke-width:0.26458332" />
    </mask>
    <mask
       id="mask-22-7"
       fill="white">
      <path
         inkscape:connector-curvature="0"
         id="use213-5"
         d="m 0.00366631,3.5536222 c 0.00990938,0.097059 0.04007501,0.1925105 0.09049687,0.2798086 L 1.6981757,6.6111392 C 1.8157624,6.8147234 2.0267789,6.9451141 2.2594211,6.9607659 H 5.5620497 C 5.7946919,6.9451141 6.0057083,6.8147234 6.1232951,6.6111392 L 7.7273076,3.8334308 c 0.1255713,-0.2173025 0.1255713,-0.4851277 0,-0.7024913 L 6.1232951,0.35329216 C 5.9977849,0.1359286 5.7658294,0.00201602 5.514748,0.00201602 H 2.3067228 c -0.2510814,0 -0.4830369,0.13391258 -0.6085471,0.35127614 L 0.09416318,3.1309395 C 0.04374132,3.2182622 0.01357569,3.3137288 0.00366631,3.4107921 v 0.1428302"
         style="stroke-width:0.26458332" />
    </mask>
    <mask
       id="mask2583"
       fill="white">
      <path
         inkscape:connector-curvature="0"
         id="use2581"
         d="m 0.00366631,3.5536222 c 0.00990938,0.097059 0.04007501,0.1925105 0.09049687,0.2798086 L 1.6981757,6.6111392 C 1.8157624,6.8147234 2.0267789,6.9451141 2.2594211,6.9607659 H 5.5620497 C 5.7946919,6.9451141 6.0057083,6.8147234 6.1232951,6.6111392 L 7.7273076,3.8334308 c 0.1255713,-0.2173025 0.1255713,-0.4851277 0,-0.7024913 L 6.1232951,0.35329216 C 5.9977849,0.1359286 5.7658294,0.00201602 5.514748,0.00201602 H 2.3067228 c -0.2510814,0 -0.4830369,0.13391258 -0.6085471,0.35127614 L 0.09416318,3.1309395 C 0.04374132,3.2182622 0.01357569,3.3137288 0.00366631,3.4107921 v 0.1428302"
         style="stroke-width:0.26458332" />
    </mask>
  </defs>
  <sodipodi:namedview
     id="base"
     pagecolor="#ffffff"
     bordercolor="#666666"
     borderopacity="1.0"
     inkscape:pageopacity="0.0"
     inkscape:pageshadow="2"
     inkscape:zoom="4.9273438"
     inkscape:cx="-6.8975743"
     inkscape:cy="49.640731"
     inkscape:document-units="mm"
     inkscape:current-layer="layer1"
     showgrid="false"
     inkscape:window-width="1854"
     inkscape:window-height="1057"
     inkscape:window-x="1912"
     inkscape:window-y="-8"
     inkscape:window-maximized="1" />
  <metadata
     id="metadata1837">
    <rdf:RDF>
      <cc:Work
         rdf:about="">
        <dc:format>image/svg+xml</dc:format>
        <dc:type
           rdf:resource="http://purl.org/dc/dcmitype/StillImage" />
        <dc:title />
      </cc:Work>
    </rdf:RDF>
  </metadata>
  <g
     inkscape:label="Layer 1"
     inkscape:groupmode="layer"
     id="layer1"
     transform="translate(-38.566723,-72.129918)">
    <g
       id="g4547">
      <path
         id="path4527"
         d="m 43.935364,75.541641 -0.03831,0.237573 -0.03831,0.237575 -0.173548,0.07191 -0.173485,0.07197 -0.204554,-0.145947 -0.20449,-0.145949 -0.14683,0.146768 -0.146829,0.14683 0.140401,0.200898 0.140402,0.200835 -0.07052,0.179157 -0.07052,0.179157 -0.234992,0.03793 -0.23499,0.03788 v 0.203924 c 0,0.229639 -0.0039,0.225864 0.271352,0.26026 l 0.184702,0.02306 0.0789,0.178464 c 0.08791,0.198765 0.08869,0.195851 -0.118914,0.4616 l -0.09037,0.115636 0.153067,0.150737 0.153069,0.150736 0.198504,-0.144435 0.198503,-0.144435 0.174936,0.08009 0.174872,0.08004 0.03901,0.24167 0.03894,0.241608 h 0.203922 c 0.226885,0 0.215787,0.01248 0.25982,-0.293157 0.02679,-0.185873 0.03122,-0.191505 0.21993,-0.280425 l 0.155966,-0.07354 0.21054,0.150233 0.210477,0.150233 0.146514,-0.146514 0.146517,-0.146516 -0.149541,-0.209594 -0.149602,-0.209658 0.08073,-0.176259 c 0.07983,-0.174373 0.08255,-0.176525 0.24961,-0.198314 0.325673,-0.04248 0.314077,-0.03288 0.314077,-0.259945 v -0.202285 l -0.250051,-0.03913 -0.250051,-0.03913 -0.06849,-0.174685 -0.0685,-0.174745 0.140151,-0.20134 0.140149,-0.20134 -0.148215,-0.150422 -0.148154,-0.150421 -0.195038,0.143615 c -0.124182,0.09142 -0.213647,0.136004 -0.246144,0.122758 -0.02808,-0.01144 -0.09459,-0.03594 -0.147839,-0.05446 -0.150395,-0.05228 -0.168692,-0.07809 -0.192959,-0.272297 -0.03395,-0.271751 -0.03055,-0.268199 -0.259882,-0.268199 z m 0.19529,1.07797 c 0.05116,-9.4e-4 0.103554,0.0052 0.156282,0.01941 0.166718,0.04489 0.371047,0.22804 0.420073,0.376589 0.08918,0.270226 -0.04624,0.59309 -0.300404,0.716126 -0.159633,0.07727 -0.348534,0.08624 -0.492667,0.02344 -0.135994,-0.05926 -0.2966,-0.252472 -0.338149,-0.406774 -0.09924,-0.368546 0.196741,-0.722218 0.554865,-0.728792 z"
         style="fill:#808000;stroke-width:0.03226472"
         inkscape:connector-curvature="0" />
      <path
         id="path4523"
         d="m 41.567894,78.381918 c -1.067467,-0.0541 -1.964308,-0.403696 -2.24038,-0.873322 -0.07606,-0.129375 -0.07818,-0.145002 -0.08354,-0.616336 -0.0045,-0.395643 4.31e-4,-0.465489 0.0269,-0.384032 0.01797,0.05522 0.111528,0.179162 0.210053,0.278292 0.402698,0.405164 1.219244,0.65998 2.266273,0.707227 0.397713,0.01794 0.424283,0.02273 0.446139,0.08021 0.03775,0.0993 0.163573,0.232816 0.255141,0.270744 0.07354,0.03047 0.08105,0.0431 0.05476,0.09222 -0.02755,0.05148 -0.03597,0.229939 -0.01782,0.377682 0.0065,0.05276 -0.01367,0.05793 -0.277476,0.07112 -0.156458,0.0078 -0.444481,0.0061 -0.640053,-0.0037 z"
         style="fill:#4285f4;fill-opacity:1;stroke-width:0.02844678"
         inkscape:connector-curvature="0" />
      <path
         id="path4521"
         d="m 41.329411,77.131283 c -0.543664,-0.05734 -1.128855,-0.21684 -1.477656,-0.40275 -0.213867,-0.11399 -0.458175,-0.334848 -0.539587,-0.487796 -0.0553,-0.103887 -0.06292,-0.167501 -0.07025,-0.585913 l -0.0082,-0.469372 0.0565,0.121374 c 0.178971,0.384525 0.826564,0.71964 1.694537,0.876883 0.214111,0.03879 0.433966,0.05187 0.888925,0.05291 l 0.604457,0.0014 2.9e-5,0.09432 c 2e-5,0.05188 0.01339,0.119273 0.02971,0.149768 0.02369,0.04426 0.01938,0.05917 -0.02134,0.07388 -0.188559,0.06813 -0.321244,0.265314 -0.321244,0.477411 v 0.129143 l -0.305803,-0.0037 c -0.168192,-0.0021 -0.40672,-0.01442 -0.530062,-0.02744 z"
         style="fill:#4285f4;fill-opacity:1;stroke-width:0.02844678"
         inkscape:connector-curvature="0" />
      <path
         id="path4519"
         d="M 41.283427,75.892894 C 40.417184,75.787433 39.659426,75.482075 39.391153,75.130351 39.25962,74.957903 39.237857,74.85178 39.236507,74.376246 l -0.0013,-0.4394 0.07368,0.147855 c 0.442596,0.888176 2.920915,1.232449 4.417061,0.613591 0.389985,-0.161311 0.688849,-0.390845 0.810219,-0.622263 0.04251,-0.08108 0.04481,-0.0636 0.0459,0.349386 0.0012,0.469084 -0.01552,0.54658 -0.153536,0.710256 -0.07725,0.09162 -0.08027,0.09245 -0.332582,0.09245 -0.313864,0 -0.444787,0.0564 -0.562741,0.242385 -0.04392,0.06926 -0.08706,0.118758 -0.09584,0.109974 -0.0088,-0.0088 -0.06176,-0.0263 -0.117728,-0.03892 -0.168723,-0.03806 -0.316225,0.01868 -0.506452,0.194796 l -0.171168,0.158472 -0.629538,0.0051 c -0.346245,0.0028 -0.674341,-3.22e-4 -0.729101,-0.007 z"
         style="fill:#87cefa;stroke-width:0.02844678"
         inkscape:connector-curvature="0" />
      <path
         id="path4515"
         d="m 41.38299,74.655548 c -1.008366,-0.09609 -1.84258,-0.45456 -2.069369,-0.889233 -0.08158,-0.156346 -0.08212,-0.389517 -0.0013,-0.54439 0.487948,-0.934762 3.17827,-1.232027 4.617954,-0.510259 0.548793,0.275132 0.778927,0.67878 0.593841,1.041576 -0.318987,0.62527 -1.746179,1.035235 -3.141149,0.902306 z"
         style="fill:#4285f4;fill-opacity:1;stroke-width:0.02844678"
         inkscape:connector-curvature="0" />
    </g>
  </g>
</svg>
