<?xml version="1.0" encoding="UTF-8" standalone="no"?>
<!-- Created with Inkscape (http://www.inkscape.org/) -->

<svg
   xmlns:dc="http://purl.org/dc/elements/1.1/"
   xmlns:cc="http://creativecommons.org/ns#"
   xmlns:rdf="http://www.w3.org/1999/02/22-rdf-syntax-ns#"
   xmlns:svg="http://www.w3.org/2000/svg"
   xmlns="http://www.w3.org/2000/svg"
   xmlns:sodipodi="http://sodipodi.sourceforge.net/DTD/sodipodi-0.dtd"
   xmlns:inkscape="http://www.inkscape.org/namespaces/inkscape"
   width="7.7200613mm"
   height="6.9423819mm"
   viewBox="0 0 7.7200613 6.9423819"
   version="1.1"
   id="svg1840"
   inkscape:version="0.92.1 r15371"
   sodipodi:docname="beam-json-parser.svg">
  <defs
     id="defs1834">
    <mask
       id="mask-22"
       fill="white">
      <path
         inkscape:connector-curvature="0"
         id="use213"
         d="m 0.00366631,3.5536222 c 0.00990938,0.097059 0.04007501,0.1925105 0.09049687,0.2798086 L 1.6981757,6.6111392 C 1.8157624,6.8147234 2.0267789,6.9451141 2.2594211,6.9607659 H 5.5620497 C 5.7946919,6.9451141 6.0057083,6.8147234 6.1232951,6.6111392 L 7.7273076,3.8334308 c 0.1255713,-0.2173025 0.1255713,-0.4851277 0,-0.7024913 L 6.1232951,0.35329216 C 5.9977849,0.1359286 5.7658294,0.00201602 5.514748,0.00201602 H 2.3067228 c -0.2510814,0 -0.4830369,0.13391258 -0.6085471,0.35127614 L 0.09416318,3.1309395 C 0.04374132,3.2182622 0.01357569,3.3137288 0.00366631,3.4107921 v 0.1428302"
         style="stroke-width:0.26458332" />
    </mask>
    <mask
       id="mask-22-3"
       fill="white">
      <path
         inkscape:connector-curvature="0"
         id="use213-6"
         d="m 0.00366631,3.5536222 c 0.00990938,0.097059 0.04007501,0.1925105 0.09049687,0.2798086 L 1.6981757,6.6111392 C 1.8157624,6.8147234 2.0267789,6.9451141 2.2594211,6.9607659 H 5.5620497 C 5.7946919,6.9451141 6.0057083,6.8147234 6.1232951,6.6111392 L 7.7273076,3.8334308 c 0.1255713,-0.2173025 0.1255713,-0.4851277 0,-0.7024913 L 6.1232951,0.35329216 C 5.9977849,0.1359286 5.7658294,0.00201602 5.514748,0.00201602 H 2.3067228 c -0.2510814,0 -0.4830369,0.13391258 -0.6085471,0.35127614 L 0.09416318,3.1309395 C 0.04374132,3.2182622 0.01357569,3.3137288 0.00366631,3.4107921 v 0.1428302"
         style="stroke-width:0.26458332" />
    </mask>
    <mask
       id="mask-22-7"
       fill="white">
      <path
         inkscape:connector-curvature="0"
         id="use213-5"
         d="m 0.00366631,3.5536222 c 0.00990938,0.097059 0.04007501,0.1925105 0.09049687,0.2798086 L 1.6981757,6.6111392 C 1.8157624,6.8147234 2.0267789,6.9451141 2.2594211,6.9607659 H 5.5620497 C 5.7946919,6.9451141 6.0057083,6.8147234 6.1232951,6.6111392 L 7.7273076,3.8334308 c 0.1255713,-0.2173025 0.1255713,-0.4851277 0,-0.7024913 L 6.1232951,0.35329216 C 5.9977849,0.1359286 5.7658294,0.00201602 5.514748,0.00201602 H 2.3067228 c -0.2510814,0 -0.4830369,0.13391258 -0.6085471,0.35127614 L 0.09416318,3.1309395 C 0.04374132,3.2182622 0.01357569,3.3137288 0.00366631,3.4107921 v 0.1428302"
         style="stroke-width:0.26458332" />
    </mask>
    <mask
       id="mask2583"
       fill="white">
      <path
         inkscape:connector-curvature="0"
         id="use2581"
         d="m 0.00366631,3.5536222 c 0.00990938,0.097059 0.04007501,0.1925105 0.09049687,0.2798086 L 1.6981757,6.6111392 C 1.8157624,6.8147234 2.0267789,6.9451141 2.2594211,6.9607659 H 5.5620497 C 5.7946919,6.9451141 6.0057083,6.8147234 6.1232951,6.6111392 L 7.7273076,3.8334308 c 0.1255713,-0.2173025 0.1255713,-0.4851277 0,-0.7024913 L 6.1232951,0.35329216 C 5.9977849,0.1359286 5.7658294,0.00201602 5.514748,0.00201602 H 2.3067228 c -0.2510814,0 -0.4830369,0.13391258 -0.6085471,0.35127614 L 0.09416318,3.1309395 C 0.04374132,3.2182622 0.01357569,3.3137288 0.00366631,3.4107921 v 0.1428302"
         style="stroke-width:0.26458332" />
    </mask>
  </defs>
  <sodipodi:namedview
     id="base"
     pagecolor="#ffffff"
     bordercolor="#666666"
     borderopacity="1.0"
     inkscape:pageopacity="0.0"
     inkscape:pageshadow="2"
     inkscape:zoom="9.8546876"
     inkscape:cx="5.5686358"
     inkscape:cy="16.719724"
     inkscape:document-units="mm"
     inkscape:current-layer="text4498"
     showgrid="false"
     inkscape:window-width="1920"
     inkscape:window-height="1027"
     inkscape:window-x="1912"
     inkscape:window-y="-8"
     inkscape:window-maximized="1" />
  <metadata
     id="metadata1837">
    <rdf:RDF>
      <cc:Work
         rdf:about="">
        <dc:format>image/svg+xml</dc:format>
        <dc:type
           rdf:resource="http://purl.org/dc/dcmitype/StillImage" />
        <dc:title />
      </cc:Work>
    </rdf:RDF>
  </metadata>
  <g
     inkscape:label="Layer 1"
     inkscape:groupmode="layer"
     id="layer1"
     transform="translate(-38.566723,-72.129918)">
    <g
       aria-label="{}"
       transform="scale(0.91651779,1.0910863)"
       style="font-style:normal;font-weight:normal;font-size:5.87183475px;line-height:1.25;font-family:sans-serif;letter-spacing:0px;word-spacing:0px;fill:#4285f4;fill-opacity:1;stroke:none;stroke-width:0.31456259"
       id="text4498">
      <path
         d="m 45.729868,72.131825 h -0.785587 q -0.556219,0 -0.888803,-0.283843 -0.329717,-0.280977 -0.329717,-0.825727 V 70.60079 q 0,-0.510345 -0.226502,-0.708175 -0.226501,-0.200698 -0.731112,-0.200698 h -0.200698 v -0.705308 h 0.200698 q 0.504611,0 0.731112,-0.197831 0.226502,-0.200697 0.226502,-0.711042 v -0.421465 q 0,-0.54475 0.329717,-0.825727 0.332584,-0.283843 0.888803,-0.283843 h 0.785587 v 0.642232 h -0.32685 q -0.172026,0 -0.312515,0.0258 -0.137621,0.0258 -0.232235,0.09748 -0.09748,0.07455 -0.146223,0.2179 -0.04874,0.140489 -0.04874,0.364123 v 0.312515 q 0,0.401395 -0.226502,0.670903 -0.223634,0.269508 -0.639365,0.427199 v 0.06881 q 0.415731,0.157691 0.639365,0.427199 0.226502,0.269508 0.226502,0.670903 v 0.312515 q 0,0.223634 0.04874,0.364123 0.04874,0.143355 0.146223,0.2179 0.09175,0.07454 0.232235,0.09748 0.140489,0.0258 0.312515,0.0258 h 0.32685 z"
         style="font-style:normal;font-variant:normal;font-weight:bold;font-stretch:normal;font-size:5.87183523px;font-family:sans-serif;-inkscape-font-specification:'sans-serif, Bold';font-variant-ligatures:normal;font-variant-caps:normal;font-variant-numeric:normal;font-feature-settings:normal;text-align:start;writing-mode:lr-tb;text-anchor:start;fill:#4285f4;fill-opacity:1;stroke-width:0.31456259"
         id="path4501" />
      <path
         d="m 50.044865,69.691917 h -0.200698 q -0.504611,0 -0.731112,0.200698 -0.226502,0.19783 -0.226502,0.708175 v 0.421465 q 0,0.54475 -0.332584,0.825727 -0.329717,0.283843 -0.885936,0.283843 h -0.785587 v -0.642232 h 0.32685 q 0.172026,0 0.309647,-0.0258 0.140489,-0.0258 0.235103,-0.09748 0.09748,-0.07455 0.146223,-0.2179 0.04874,-0.140489 0.04874,-0.364123 V 70.47177 q 0,-0.401395 0.223635,-0.670903 0.226501,-0.269508 0.642232,-0.427199 v -0.06881 q -0.415731,-0.157691 -0.642232,-0.427199 -0.223635,-0.269508 -0.223635,-0.670903 v -0.312515 q 0,-0.223634 -0.04874,-0.364123 -0.04874,-0.143355 -0.146223,-0.2179 -0.09461,-0.07168 -0.235103,-0.09748 -0.137621,-0.0258 -0.309647,-0.0258 h -0.32685 v -0.642232 h 0.785587 q 0.556219,0 0.885936,0.283843 0.332584,0.280977 0.332584,0.825727 v 0.421465 q 0,0.510345 0.226502,0.711042 0.226501,0.197831 0.731112,0.197831 h 0.200698 z"
         style="font-style:normal;font-variant:normal;font-weight:bold;font-stretch:normal;font-size:5.87183523px;font-family:sans-serif;-inkscape-font-specification:'sans-serif, Bold';font-variant-ligatures:normal;font-variant-caps:normal;font-variant-numeric:normal;font-feature-settings:normal;text-align:start;writing-mode:lr-tb;text-anchor:start;fill:#4285f4;fill-opacity:1;stroke-width:0.31456259"
         id="path4503" />
    </g>
    <path
       inkscape:connector-curvature="0"
       style="fill:#808000;stroke-width:0.03226472"
       d="m 42.238537,74.038434 -0.03831,0.237573 -0.03831,0.237575 -0.173548,0.07191 -0.173485,0.07197 -0.204554,-0.145947 -0.20449,-0.145949 -0.14683,0.146768 -0.146829,0.14683 0.140401,0.200898 0.140402,0.200835 -0.07052,0.179157 -0.07052,0.179157 -0.234992,0.03793 -0.23499,0.03788 v 0.203924 c 0,0.229639 -0.0039,0.225864 0.271352,0.26026 l 0.184702,0.02306 0.0789,0.178464 c 0.08791,0.198765 0.08869,0.195851 -0.118914,0.4616 l -0.09037,0.115636 0.153067,0.150737 0.153069,0.150736 0.198504,-0.144435 0.198503,-0.144435 0.174936,0.08009 0.174872,0.08004 0.03901,0.24167 0.03894,0.241608 h 0.203922 c 0.226885,0 0.215787,0.01248 0.25982,-0.293157 0.02679,-0.185873 0.03122,-0.191505 0.21993,-0.280425 l 0.155966,-0.07354 0.21054,0.150233 0.210477,0.150233 0.146514,-0.146514 0.146517,-0.146516 -0.149541,-0.209594 -0.149602,-0.209658 0.08073,-0.176259 c 0.07983,-0.174373 0.08255,-0.176525 0.24961,-0.198314 0.325673,-0.04248 0.314077,-0.03288 0.314077,-0.259945 v -0.202285 l -0.250051,-0.03913 -0.250051,-0.03913 -0.06849,-0.174685 -0.0685,-0.174745 0.140151,-0.20134 0.140149,-0.20134 -0.148215,-0.150422 -0.148154,-0.150421 -0.195038,0.143615 c -0.124182,0.09142 -0.213647,0.136004 -0.246144,0.122758 -0.02808,-0.01144 -0.09459,-0.03594 -0.147839,-0.05446 -0.150395,-0.05228 -0.168692,-0.07809 -0.192959,-0.272297 -0.03395,-0.271751 -0.03055,-0.268199 -0.259882,-0.268199 z m 0.19529,1.07797 c 0.05116,-9.4e-4 0.103554,0.0052 0.156282,0.01941 0.166718,0.04489 0.371047,0.22804 0.420073,0.376589 0.08918,0.270226 -0.04624,0.59309 -0.300404,0.716126 -0.159633,0.07727 -0.348534,0.08624 -0.492667,0.02344 -0.135994,-0.05926 -0.2966,-0.252472 -0.338149,-0.406774 -0.09924,-0.368546 0.196741,-0.722218 0.554865,-0.728792 z"
       id="path4527" />
  </g>
</svg>
